<?xml version="1.0" standalone="no"?>
<!DOCTYPE svg PUBLIC "-//W3C//DTD SVG 20010904//EN"
 "http://www.w3.org/TR/2001/REC-SVG-20010904/DTD/svg10.dtd">
<svg version="1.0" xmlns="http://www.w3.org/2000/svg"
 width="225.000000pt" height="225.000000pt" viewBox="0 0 225.000000 225.000000"
 preserveAspectRatio="xMidYMid meet">

<g transform="translate(0.000000,225.000000) scale(0.100000,-0.100000)"
fill="#000000" stroke="none">
<path d="M745 1960 c-198 -115 -399 -232 -447 -260 l-88 -51 0 -524 0 -523
138 -80 c516 -300 762 -442 767 -442 3 0 80 44 172 97 93 54 294 170 448 258
l280 161 0 529 0 529 -90 51 c-98 56 -313 180 -612 353 -106 62 -196 112 -200
111 -5 0 -170 -95 -368 -209z m604 -597 c24 -46 65 -117 92 -159 27 -41 49
-77 49 -79 0 -2 -22 -38 -49 -79 -27 -42 -68 -113 -92 -159 l-43 -84 -192 1
-193 0 -20 45 c-11 25 -50 96 -86 156 -37 61 -67 115 -68 120 0 6 29 57 64
115 35 58 74 128 87 156 l24 50 192 1 192 0 43 -84z"/>
</g>
</svg>
