<?xml version="1.0" standalone="no"?>
<!DOCTYPE svg PUBLIC "-//W3C//DTD SVG 20010904//EN"
 "http://www.w3.org/TR/2001/REC-SVG-20010904/DTD/svg10.dtd">
<svg version="1.0" xmlns="http://www.w3.org/2000/svg"
 width="20.000000pt" height="20.000000pt" viewBox="0 0 20.000000 20.000000"
 preserveAspectRatio="xMidYMid meet">

<g transform="translate(0.000000,20.000000) scale(0.100000,-0.100000)"
fill="#000000" stroke="none">
<path d="M52 168 c-31 -19 -33 -23 -30 -70 3 -45 6 -51 41 -71 l37 -21 38 21
c34 20 37 26 40 71 3 47 1 50 -33 71 -43 25 -51 25 -93 -1z m73 -68 c0 -33
-40 -41 -50 -11 -9 28 2 43 28 39 16 -2 22 -10 22 -28z" style="fill: #42a5f5"/>
</g>
</svg>
